<?xml version="1.0" standalone="no"?>
<!DOCTYPE svg PUBLIC "-//W3C//DTD SVG 20010904//EN"
 "http://www.w3.org/TR/2001/REC-SVG-20010904/DTD/svg10.dtd">
<svg version="1.0" xmlns="http://www.w3.org/2000/svg"
 width="740.000000pt" height="740.000000pt" viewBox="0 0 740.000000 740.000000"
 preserveAspectRatio="xMidYMid meet">
<metadata>
Created by potrace 1.14, written by Peter Selinger 2001-2017
</metadata>
<g transform="translate(0.000000,740.000000) scale(0.100000,-0.100000)"
fill="#000000" stroke="none">
<path d="M3488 7395 c-2 -1 -46 -6 -98 -10 -52 -3 -97 -8 -100 -10 -3 -1 -34
-6 -68 -9 -35 -4 -98 -13 -140 -21 -43 -8 -88 -16 -102 -19 -14 -2 -81 -18
-149 -35 -1195 -304 -2157 -1206 -2558 -2400 -19 -57 -36 -111 -38 -120 -3 -9
-18 -67 -35 -129 -34 -130 -32 -120 -64 -307 -42 -245 -50 -349 -50 -625 0
-192 9 -424 18 -439 2 -3 7 -35 10 -71 4 -36 9 -74 11 -85 6 -24 13 -68 21
-115 25 -165 115 -473 203 -697 45 -114 161 -358 208 -438 10 -17 31 -53 47
-80 127 -223 350 -509 561 -721 518 -520 1166 -867 1866 -1000 84 -16 102 -19
179 -29 25 -3 54 -8 65 -10 138 -29 677 -26 880 5 33 5 80 12 105 15 59 9 219
41 295 60 33 9 68 17 77 20 10 2 71 20 135 40 298 93 628 250 893 425 61 40
239 168 250 180 3 3 46 39 95 80 96 80 291 269 371 361 86 97 98 112 165 199
120 156 276 397 338 520 12 25 26 52 31 60 50 81 178 396 234 574 35 108 88
313 100 381 3 17 8 39 10 50 2 11 7 43 11 70 5 28 9 52 10 55 1 4 5 33 21 155
19 143 25 561 11 735 -7 86 -32 284 -42 330 -3 14 -8 40 -11 59 -7 42 -10 54
-24 116 -6 28 -14 61 -16 75 -3 14 -19 72 -35 130 -38 133 -35 123 -42 140 -3
8 -15 44 -28 80 -109 324 -284 659 -495 952 -300 416 -709 787 -1144 1035
-182 103 -464 233 -595 272 -22 7 -49 16 -60 21 -49 22 -362 103 -440 114 -23
4 -52 9 -65 12 -54 11 -95 17 -280 40 -54 6 -536 15 -542 9z"/>
</g>
</svg>
